.
..............................Site Info...........................

 -   http://www.scenetime.com  *_*   

SceneTime is going to Close sign up on march/1, hurry up! get in before the doors are closed.

     We care to share . Join us on  http://www.scenetime.com 

    Be the first to get new release at  http://www.scenetime.com

        Seed back for speed


...................................NFO:.................................................                                                     
                                                   
                                                         
                                                          
                                                           
                                                          
                                                          
                                                          
                                                           
                                                         
                                                          
                                                        
                                                      
                                     
                                                 
                                                   
                                             
                                              
                                                     
                                                      
                                                      
                                                      
                                                    
                                                     
                                                   
                                                     
                                                     
                                                      
                                                     
                                                      
                                                    
                 ARTiCHOKE                        
                                                
                      
                                                        
                                                      
                                                      
                                               
                                          
                                                   
                                            
                                                    
                                                       
                                                        
                                                      
                                                
                                                        
                                                 
                                              
                                                  
                                                
                                                  
                                        

      
                                
      SPRiNTER proudly presents...     
                                
      
 
 Junkhearts.2011.DVDRip.XviD-SPRiNTER

 Date : 17.2.2012
 URL  : http://www.imdb.com/title/tt1665746/
 Subs : No

 

      
                 
      Release notes     
                 
      

 Enjoy!


      
          
       News      
          
      

 We are currently looking for:
 - Looking for talented xvid-encoders with time & addiction :)
 - Suppliers who can provide pre-retail or retail dvds with decent upload!
 - 50Mbit+ dump providers with 1TB+ free space.

 sprinter@hush.com


      
           
     Greetings    
           
      


NTX FiCO HNR CiNEFiLE AEN HUMANiSM TASTE 0MNiDVD


      
           
      Details     
           
      

Format                                   : AVI
Format/Info                              : Audio Video Interleave
File size                                : 1,36 GiB
Duration                                 : 1h 52m 32s
Overall bit rate mode                    : Variable
Overall bit rate                         : 1 984 Kbps
Writing application                      : VirtualDubMod 1.5.10.2 (build 2540/release)
Writing library                          : VirtualDubMod build 2540/release

Video
ID                                       : 0
Format                                   : MPEG-4 Visual
Format profile                           : Advanced Simple@L5
Format settings, BVOP                    : 2
Format settings, QPel                    : No
Format settings, GMC                     : No warppoints
Format settings, Matrix                  : Default (H.263)
Codec ID                                 : XVID
Codec ID/Hint                            : XviD
Duration                                 : 49mn 0s
Bit rate                                 : 1 902 Kbps
Width                                    : 608 pixels
Height                                   : 320 pixels
Display aspect ratio                     : 1.900
Frame rate                               : 25.000 fps
Color space                              : YUV
Chroma subsampling                       : 4:2:0
Bit depth                                : 8 bits
Scan type                                : Progressive
Compression mode                         : Lossy
Bits/(Pixel*Frame)                       : 0.391
Stream size                              : 667 MiB (96%)
Writing library                          : XviD 61

Audio
ID                                       : 1
Format                                   : MPEG Audio
Format version                           : Version 1
Format profile                           : Layer 3
Codec ID                                 : 55
Codec ID/Hint                            : MP3
Duration                                 : 49mn 0s
Bit rate mode                            : Variable
Bit rate                                 : 68.0 Kbps
Minimum bit rate                         : 40.0 Kbps
Channel(s)                               : 1 channel
Sampling rate                            : 48.0 KHz
Compression mode                         : Lossy
Stream size                              : 24.1 MiB (3%)
Alignment                                : Aligned on interleaves
Interleave, duration                     : 24 ms (0.60 video frame)
Interleave, preload duration             : 327 ms
Writing library                          : LAME3.95 
Encoding settings                        : -m m -V 5 -q 3 -lowpass 17 --vbr-old -b 40